<!-- <svg xmlns="http://www.w3.org/2000/svg" width="584" height="584"><defs><linearGradient id="a" x1="0%" x2="100%" y1="50%" y2="50%"><stop offset="0%" stop-color="#5D0202" stop-opacity="0"/><stop offset="100%" stop-color="#5D0202" stop-opacity=".498"/></linearGradient></defs><g fill="url(#a)" fill-rule="evenodd" opacity=".06"><circle cx="146" cy="438" r="146" transform="matrix(1 0 0 -1 0 876)"/><circle cx="146" cy="146" r="146" transform="matrix(-1 0 0 1 292 0)"/><circle cx="438" cy="438" r="146" transform="matrix(0 1 1 0 0 0)"/></g></svg> -->

<svg width="876" height="146" viewBox="0 0 876 146" fill="none" xmlns="http://www.w3.org/2000/svg">
<circle opacity="0.308943" cx="730" cy="146" r="146" transform="rotate(-90 730 146)" fill="url(#paint0_linear)"/>
<circle opacity="0.308943" cx="438" cy="146" r="146" fill="url(#paint1_linear)"/>
<circle opacity="0.308943" cx="146" cy="146" r="146" transform="rotate(90 146 146)" fill="url(#paint2_linear)"/>
<defs>
<linearGradient id="paint0_linear" x1="584" y1="292" x2="876" y2="292" gradientUnits="userSpaceOnUse">
<stop stop-color="#5D0202" stop-opacity="0.01"/>
<stop offset="1" stop-color="#5D0202" stop-opacity="0.497569"/>
</linearGradient>
<linearGradient id="paint1_linear" x1="292" y1="292" x2="584" y2="292" gradientUnits="userSpaceOnUse">
<stop stop-color="#5D0202" stop-opacity="0.01"/>
<stop offset="1" stop-color="#5D0202" stop-opacity="0.497569"/>
</linearGradient>
<linearGradient id="paint2_linear" x1="0" y1="292" x2="292" y2="292" gradientUnits="userSpaceOnUse">
<stop stop-color="#5D0202" stop-opacity="0.01"/>
<stop offset="1" stop-color="#5D0202" stop-opacity="0.497569"/>
</linearGradient>
</defs>
</svg>
